<?xml version="1.0" encoding="UTF-8"?>
<svg xmlns="http://www.w3.org/2000/svg" viewBox="0 0 200 200" width="200" height="200" role="img" aria-label="Semangka">
  <defs>
    <filter id="s" x="-25%" y="-25%" width="150%" height="150%">
      <feDropShadow dx="0" dy="5" stdDeviation="5" flood-opacity="0.14"/>
    </filter>
  </defs>
  <path d="M30 140 A80 80 0 0 1 170 140 L100 155 Z" fill="#27AE60" filter="url(#s)"/><path d="M42 138 A66 66 0 0 1 158 138 L100 150 Z" fill="#E74C3C"/><path d="M55 136 A50 50 0 0 1 145 136 L100 145 Z" fill="#FF6B6B"/><ellipse cx="75" cy="115" rx="4" ry="6" fill="#2C3E50" transform="rotate(-20 75 115)"/><ellipse cx="100" cy="105" rx="4" ry="6" fill="#2C3E50"/><ellipse cx="125" cy="115" rx="4" ry="6" fill="#2C3E50" transform="rotate(20 125 115)"/><ellipse cx="88" cy="128" rx="3.5" ry="5" fill="#2C3E50"/><ellipse cx="115" cy="128" rx="3.5" ry="5" fill="#2C3E50"/>
</svg>
